REM MD5 63d2fac7b267a1527b7d1ecf641a7ffb
FILE "Adidas Power Soccer (USA).bin" BINARY
  TRACK 01 MODE2/2352
    INDEX 01 00:00:00
  TRACK 02 AUDIO
    INDEX 00 48:42:28
    INDEX 01 48:44:28
  TRACK 03 AUDIO
    INDEX 00 52:50:38
    INDEX 01 52:52:38
  TRACK 04 AUDIO
    INDEX 00 56:37:63
    INDEX 01 56:39:63
REM LEADOUT 59:45:07
